<?xml version="1.0" encoding="UTF-8" standalone="no"?>
<!-- Created with Inkscape (http://www.inkscape.org/) -->

<svg
   width="9.6907492in"
   height="2.6656523in"
   viewBox="0 0 246.14503 67.707569"
   version="1.1"
   id="svg5"
   xml:space="preserve"
   sodipodi:docname="connortone_sticker_c-hole_recto_1_plain.svg"
   inkscape:version="1.2.1 (9c6d41e, 2022-07-14)"
   inkscape:export-filename="connortone_sticker_c-hole_recto_1_plain.png"
   inkscape:export-xdpi="96"
   inkscape:export-ydpi="96"
   xmlns:inkscape="http://www.inkscape.org/namespaces/inkscape"
   xmlns:sodipodi="http://sodipodi.sourceforge.net/DTD/sodipodi-0.dtd"
   xmlns="http://www.w3.org/2000/svg"
   xmlns:svg="http://www.w3.org/2000/svg"
   xmlns:rdf="http://www.w3.org/1999/02/22-rdf-syntax-ns#"
   xmlns:cc="http://creativecommons.org/ns#"
   xmlns:dc="http://purl.org/dc/elements/1.1/"><sodipodi:namedview
     id="namedview44"
     pagecolor="#ffffff"
     bordercolor="#111111"
     borderopacity="1"
     inkscape:showpageshadow="0"
     inkscape:pageopacity="0"
     inkscape:pagecheckerboard="1"
     inkscape:deskcolor="#d1d1d1"
     inkscape:document-units="in"
     showgrid="false"
     inkscape:zoom="2"
     inkscape:cx="335.5"
     inkscape:cy="134"
     inkscape:window-width="2107"
     inkscape:window-height="906"
     inkscape:window-x="2158"
     inkscape:window-y="123"
     inkscape:window-maximized="0"
     inkscape:current-layer="svg5" /><title
     id="title63">ConnorTone ID tag</title><defs
     id="defs2" /><rect
     style="fill:#ffffff;fill-opacity:1;stroke:#000000;stroke-width:5.6134;stroke-linejoin:round;stroke-miterlimit:4;stroke-dasharray:none;stroke-opacity:1;image-rendering:auto"
     id="rect11829"
     width="240.52032"
     height="62.038254"
     x="2.8044338"
     y="2.8649867"
     ry="6.8207331"
     transform="matrix(0.99999997,-2.4645008e-4,2.3400296e-4,0.99999997,0,0)" /><rect
     style="fill:none;fill-opacity:1;stroke:#000000;stroke-width:2.00048;stroke-linejoin:round;stroke-miterlimit:4;stroke-dasharray:none;stroke-opacity:1;image-rendering:auto"
     id="rect12557"
     width="29.996479"
     height="51.80014"
     x="12.09748"
     y="7.9599724"
     ry="6.5165219"
     transform="matrix(0.99999997,-2.3094451e-4,2.5002535e-4,0.99999997,0,0)"
     inkscape:label="rect12557" /><path
     style="fill:#000000;stroke-width:0.290594;stroke-dasharray:none"
     d="m 28.281236,56.140472 c -4.44047,-1.813758 -8.08139,-7.420195 -9.38366,-14.449309 -0.42583,-2.298435 -0.4719,-13.114621 -0.0665,-15.591007 0.40599,-2.479046 1.41486,-5.501825 2.5726,-7.707839 1.687,-3.214507 3.5328,-5.189012 6.08774,-6.512243 1.46982,-0.76124 1.81859,-0.850793 3.34887,-0.859863 2.10564,-0.01253 3.17895,0.454688 4.02165,1.750469 0.75947,1.167807 0.83383,2.857257 0.16574,3.765803 -1.10467,1.502267 -3.16474,1.655564 -4.49058,0.334166 -0.97736,-0.974096 -1.18122,-2.083505 -0.60121,-3.27207 0.24199,-0.495878 0.35575,-0.901276 0.2528,-0.900886 -0.38698,0.0015 -2.5832,1.993347 -3.61741,3.28085 -1.50661,1.875574 -2.27745,3.528619 -3.02513,6.487293 -1.57604,6.236487 -1.44662,7.98431 0.81793,11.046706 0.15216,0.205554 0.13535,0.428114 -0.0519,0.695996 -1.67635,2.396786 -2.03898,3.912002 -1.61501,6.74829 0.39666,2.653364 1.52191,6.650474 2.3401,8.312103 0.77423,1.57235 3.77516,4.938782 4.93414,5.535094 0.7107,0.365656 0.7978,0.202584 0.22755,-0.425894 -0.52451,-0.578044 -0.50445,-2.313081 0.0366,-3.148956 1.52496,-2.356755 5.47401,-1.225391 5.48779,1.572193 0.007,1.393735 -1.18991,3.122947 -2.51403,3.632532 -1.12936,0.434633 -3.48952,0.294033 -4.9279,-0.293387 z"
     id="path458" /><g
     aria-label="ConnorTone"
     id="text17738"
     style="font-size:49.7066px;line-height:1.25;stroke-width:1.24267"
     transform="matrix(0.66816142,-1.5983452e-4,1.6048522e-4,0.66545228,-21.158528,4.6235629)"><path
       d="m 119.20347,13.522941 q 3.73771,0 6.50458,2.13583 l 4.22312,13.834357 q -0.14563,0.679582 -0.33979,1.650414 -0.33979,1.310623 -0.87375,2.766871 h -10.09665 q 0.2427,-0.92229 0.2427,-1.650414 0,-2.13583 -2.13583,-2.13583 -1.60187,0 -3.44645,1.553331 -1.45625,1.262081 -2.47562,2.912496 -1.31063,2.184372 -1.21354,3.980411 0.0485,1.747498 1.50479,2.087289 2.66979,0.582499 5.63082,-3.155204 l 7.2327,4.223119 q -6.35895,7.087074 -13.68873,7.087074 -4.3202,0 -7.2327,-2.766871 L 99.398501,34.10458 q 0.09708,-1.310623 0.533958,-2.961038 1.747501,-6.844366 6.941451,-11.989775 5.67937,-5.630826 12.32956,-5.630826 z"
       style="font-family:'Damn Noisy Kids';-inkscape-font-specification:'Damn Noisy Kids, Normal'"
       id="path20031" /><path
       d="m 149.15364,13.620024 q 3.73771,0 6.50458,2.13583 l 4.22312,13.834357 q -0.0971,0.582499 -0.38834,1.698956 -1.69895,6.795824 -6.94144,11.989776 -5.72791,5.679367 -12.32957,5.679367 -4.3202,0 -7.28124,-2.815413 l -3.54354,-11.941234 q 0.0971,-0.970832 0.48542,-2.912496 1.7475,-6.844366 6.94145,-11.989776 5.67936,-5.679367 12.32956,-5.679367 z m -2.47562,16.552686 q -1.60187,0 -3.44645,1.601873 -1.45625,1.262082 -2.47562,2.912496 -1.31063,2.184372 -1.21354,3.980411 0.0485,2.184372 2.08729,2.184372 1.55333,0 3.39791,-1.553331 1.50479,-1.310623 2.52416,-2.961037 1.31062,-2.135831 1.21354,-3.93187 -0.0971,-2.232914 -2.08729,-2.232914 z"
       style="font-family:'Damn Noisy Kids';-inkscape-font-specification:'Damn Noisy Kids, Normal'"
       id="path20033" /><path
       d="m 164.25008,13.765649 13.64019,13.543107 2.37854,-13.591649 7.96082,3.592079 -5.72791,31.454958 -13.97998,-11.50436 -1.9902,11.601443 -7.91229,-3.592079 z"
       style="font-family:'Damn Noisy Kids';-inkscape-font-specification:'Damn Noisy Kids, Normal'"
       id="path20035" /><path
       d="m 193.22942,13.765649 13.64019,13.543107 2.37854,-13.591649 7.96082,3.592079 -5.72791,31.454958 -13.97998,-11.50436 -1.99021,11.601443 -7.91228,-3.592079 z"
       style="font-family:'Damn Noisy Kids';-inkscape-font-specification:'Damn Noisy Kids, Normal'"
       id="path20037" /><path
       d="m 236.3829,13.620024 q 3.7377,0 6.50457,2.13583 l 4.22312,13.834357 q -0.0971,0.582499 -0.38833,1.698956 -1.69896,6.795824 -6.94145,11.989776 -5.72791,5.679367 -12.32957,5.679367 -4.3202,0 -7.28124,-2.815413 l -3.54353,-11.941234 q 0.0971,-0.970832 0.48541,-2.912496 1.7475,-6.844366 6.94145,-11.989776 5.67937,-5.679367 12.32957,-5.679367 z m -2.47562,16.552686 q -1.60188,0 -3.44646,1.601873 -1.45624,1.262082 -2.47562,2.912496 -1.31062,2.184372 -1.21354,3.980411 0.0485,2.184372 2.08729,2.184372 1.55333,0 3.39791,-1.553331 1.50479,-1.310623 2.52417,-2.961037 1.31062,-2.135831 1.21354,-3.93187 -0.0971,-2.232914 -2.08729,-2.232914 z"
       style="font-family:'Damn Noisy Kids';-inkscape-font-specification:'Damn Noisy Kids, Normal'"
       id="path20039" /><path
       d="m 250.36288,30.027085 q -1.35917,0.339792 -2.23291,0.485416 0.63104,-2.863954 1.65041,-7.669573 l 1.65041,-7.669573 q 4.90271,-1.019373 10.7277,-1.796039 2.37854,-0.339791 4.70853,-0.339791 3.34937,0 6.50458,0.679582 l 2.62124,14.174148 q -3.98041,5.14541 -12.47519,10.339361 l 11.84415,1.796039 -3.49499,8.446239 -15.82456,-2.232914 -0.5825,3.252288 -7.96083,-3.543537 z m 8.9802,-1.844581 -1.01938,5.630826 q 1.7475,-0.679582 3.59208,-1.893122 2.47562,-1.650415 2.47562,-2.863955 0,-1.164998 -2.23291,-1.164998 -1.11646,0 -2.81541,0.291249 z"
       style="font-family:'Damn Noisy Kids';-inkscape-font-specification:'Damn Noisy Kids, Normal'"
       id="path20041" /><path
       d="m 293.03095,26.629173 -4.0775,22.086429 -7.96082,-3.64062 3.1552,-17.135186 q -5.33957,1.359165 -8.25207,3.058121 0.92229,-5.096868 2.86396,-15.339146 6.8929,-1.553331 13.93144,-1.844581 2.08728,-0.09708 3.83478,-0.09708 4.02895,0 6.0677,0.485416 l -1.35916,11.892693 q -2.71833,0.194166 -8.20353,0.533957 z"
       style="font-family:'Damn Noisy Kids';-inkscape-font-specification:'Damn Noisy Kids, Normal'"
       id="path20043" /><path
       d="m 319.77737,13.620024 q 3.7377,0 6.50457,2.13583 l 4.22312,13.834357 q -0.0971,0.582499 -0.38833,1.698956 -1.69896,6.795824 -6.94145,11.989776 -5.72791,5.679367 -12.32957,5.679367 -4.3202,0 -7.28124,-2.815413 l -3.54353,-11.941234 q 0.0971,-0.970832 0.48541,-2.912496 1.7475,-6.844366 6.94145,-11.989776 5.67937,-5.679367 12.32957,-5.679367 z m -2.47562,16.552686 q -1.60188,0 -3.44646,1.601873 -1.45624,1.262082 -2.47562,2.912496 -1.31062,2.184372 -1.21354,3.980411 0.0485,2.184372 2.08729,2.184372 1.55333,0 3.39791,-1.553331 1.50479,-1.310623 2.52417,-2.961037 1.31062,-2.135831 1.21354,-3.93187 -0.0971,-2.232914 -2.08729,-2.232914 z"
       style="font-family:'Damn Noisy Kids';-inkscape-font-specification:'Damn Noisy Kids, Normal'"
       id="path20045" /><path
       d="m 334.87381,13.765649 13.64019,13.543107 2.37853,-13.591649 7.96083,3.592079 -5.72791,31.454958 -13.97998,-11.50436 -1.99021,11.601443 -7.91228,-3.592079 z"
       style="font-family:'Damn Noisy Kids';-inkscape-font-specification:'Damn Noisy Kids, Normal'"
       id="path20047" /><path
       d="m 363.0765,15.561688 q 6.8929,-1.50479 13.93143,-1.796039 2.08729,-0.09708 3.83479,-0.09708 4.02895,0 6.0677,0.485416 l -1.35916,11.892692 q -5.29104,0.29125 -7.03854,0.436874 -3.98041,0.339792 -7.03853,0.825208 l -0.53396,2.961037 8.20354,-1.164998 0.8252,6.35895 -10.24228,1.504789 -0.63104,3.689162 q 6.79583,-0.533958 13.05769,-2.475622 0.87375,2.863955 2.66979,7.960823 -8.68894,2.912496 -20.14476,2.669788 -0.48542,-1.262081 -1.31063,-3.883328 l -3.44645,-1.553331 2.47562,-13.543107 q -0.77666,0.339791 -2.23291,1.116457 0.92229,-5.14541 2.9125,-15.387688 z"
       style="font-family:'Damn Noisy Kids';-inkscape-font-specification:'Damn Noisy Kids, Normal'"
       id="path20049" /></g><metadata
     id="metadata61"><rdf:RDF><cc:Work
         rdf:about=""><dc:title>ConnorTone ID tag</dc:title><dc:date>9/8/2022</dc:date><dc:creator><cc:Agent><dc:title>Neal Connor</dc:title></cc:Agent></dc:creator><dc:rights><cc:Agent><dc:title>Copyright Neal Connor 2022</dc:title></cc:Agent></dc:rights></cc:Work></rdf:RDF></metadata><g
     aria-label="Marlborough, Mass. USA  |  Since 2022"
     id="text973"
     style="font-size:10.5833px;line-height:1.25;stroke-width:0.264583"
     transform="translate(1.26539,1.26539)"><path
       d="m 52.369687,42.366456 h -2.08491 l -1.534578,5.503315 -1.534579,-5.503315 h -2.074326 v 7.34481 h 1.375829 v -5.3869 l 1.492245,5.3869 h 1.492245 l 1.492245,-5.3869 v 5.3869 h 1.375829 z"
       style="font-family:'Chalet NewYorkNineteenSixty';-inkscape-font-specification:'Chalet NewYorkNineteenSixty, Normal'"
       id="path304" /><path
       d="m 57.396744,49.711266 h 1.280579 c -0.07408,-0.211666 -0.15875,-0.624415 -0.15875,-0.888998 v -2.836324 c 0,-0.433915 -0.169332,-1.862661 -2.381242,-1.862661 -1.428745,0 -2.423576,0.772581 -2.561158,1.809745 h 1.396995 c 0.127,-0.465666 0.698498,-0.687915 1.195913,-0.687915 0.624415,0 0.99483,0.232833 0.99483,0.518582 0,0.444498 -0.645581,0.550331 -1.555745,0.634998 -1.206496,0.105833 -2.233076,0.423332 -2.233076,1.650995 0,1.185329 1.05833,1.767411 2.211909,1.767411 0.761998,0 1.31233,-0.232833 1.672162,-0.613832 0.03175,0.201083 0.07408,0.370416 0.137583,0.507999 z m -0.179916,-2.11666 c 0,0.698497 -0.677332,0.984247 -1.513412,0.984247 -0.560915,0 -0.920747,-0.211666 -0.920747,-0.518582 0,-0.402166 0.423332,-0.550332 1.111246,-0.624415 0.571498,-0.0635 1.02658,-0.158749 1.322913,-0.349249 z"
       style="font-family:'Chalet NewYorkNineteenSixty';-inkscape-font-specification:'Chalet NewYorkNineteenSixty, Normal'"
       id="path306" /><path
       d="m 62.931798,44.155033 c -0.656165,-0.105833 -1.312329,0.09525 -1.756828,0.645582 v -0.539749 h -1.333496 v 5.4504 h 1.396996 v -2.677575 c 0,-0.433916 0.05292,-0.878414 0.349249,-1.18533 0.317499,-0.338665 0.783164,-0.402165 1.344079,-0.338665 z"
       style="font-family:'Chalet NewYorkNineteenSixty';-inkscape-font-specification:'Chalet NewYorkNineteenSixty, Normal'"
       id="path308" /><path
       d="m 65.122524,41.837291 h -1.396995 v 7.873975 h 1.396995 z"
       style="font-family:'Chalet NewYorkNineteenSixty';-inkscape-font-specification:'Chalet NewYorkNineteenSixty, Normal'"
       id="path310" /><path
       d="m 72.012252,46.991358 c 0,-1.619245 -1.164163,-2.846908 -2.592908,-2.846908 -0.624415,0 -1.18533,0.232833 -1.598079,0.634998 v -2.942157 h -1.407579 v 7.873975 h 1.344079 v -0.582082 c 0.423332,0.444499 1.005414,0.698498 1.661579,0.698498 1.428745,0 2.592908,-1.227663 2.592908,-2.836324 z m -1.396996,0.01058 c 0,0.86783 -0.624414,1.534578 -1.396995,1.534578 -0.772581,0 -1.396996,-0.687914 -1.396996,-1.534578 0,-0.867831 0.624415,-1.566328 1.396996,-1.566328 0.772581,0 1.396995,0.677331 1.396995,1.566328 z"
       style="font-family:'Chalet NewYorkNineteenSixty';-inkscape-font-specification:'Chalet NewYorkNineteenSixty, Normal'"
       id="path312" /><path
       d="m 75.388318,44.123283 c -1.513412,0 -2.741075,1.238246 -2.741075,2.868075 0,1.629828 1.227663,2.846907 2.741075,2.846907 1.513412,0 2.751658,-1.217079 2.751658,-2.846907 0,-1.629829 -1.238246,-2.868075 -2.751658,-2.868075 z m 0,4.434403 c -0.740831,0 -1.344079,-0.634998 -1.344079,-1.555745 0,-0.941914 0.603248,-1.598078 1.344079,-1.598078 0.740831,0 1.344079,0.656164 1.344079,1.598078 0,0.920747 -0.603248,1.555745 -1.344079,1.555745 z"
       style="font-family:'Chalet NewYorkNineteenSixty';-inkscape-font-specification:'Chalet NewYorkNineteenSixty, Normal'"
       id="path314" /><path
       d="m 82.18278,44.155033 c -0.656165,-0.105833 -1.312329,0.09525 -1.756828,0.645582 v -0.539749 h -1.333496 v 5.4504 h 1.396996 v -2.677575 c 0,-0.433916 0.05292,-0.878414 0.349249,-1.18533 0.317499,-0.338665 0.783164,-0.402165 1.344079,-0.338665 z"
       style="font-family:'Chalet NewYorkNineteenSixty';-inkscape-font-specification:'Chalet NewYorkNineteenSixty, Normal'"
       id="path316" /><path
       d="m 85.368338,44.123283 c -1.513411,0 -2.741074,1.238246 -2.741074,2.868075 0,1.629828 1.227663,2.846907 2.741074,2.846907 1.513412,0 2.751658,-1.217079 2.751658,-2.846907 0,-1.629829 -1.238246,-2.868075 -2.751658,-2.868075 z m 0,4.434403 c -0.740831,0 -1.344079,-0.634998 -1.344079,-1.555745 0,-0.941914 0.603248,-1.598078 1.344079,-1.598078 0.740831,0 1.34408,0.656164 1.34408,1.598078 0,0.920747 -0.603249,1.555745 -1.34408,1.555745 z"
       style="font-family:'Chalet NewYorkNineteenSixty';-inkscape-font-specification:'Chalet NewYorkNineteenSixty, Normal'"
       id="path318" /><path
       d="m 93.898464,44.260866 h -1.396996 v 3.185573 c 0,0.603249 -0.433915,1.068914 -1.05833,1.068914 -0.910164,0 -1.015997,-0.761998 -1.015997,-1.068914 v -3.185573 h -1.396995 v 3.185573 c 0,1.428746 0.857247,2.391826 2.14841,2.391826 0.571498,0 1.047746,-0.232832 1.386412,-0.624415 v 0.497416 h 1.333496 z"
       style="font-family:'Chalet NewYorkNineteenSixty';-inkscape-font-specification:'Chalet NewYorkNineteenSixty, Normal'"
       id="path320" /><path
       d="m 100.44951,44.260866 h -1.333498 v 0.582082 c -0.433915,-0.444499 -1.005413,-0.698498 -1.672161,-0.698498 -1.418162,0 -2.592909,1.227663 -2.592909,2.846908 0,1.608661 1.174747,2.836324 2.592909,2.836324 0.634998,0 1.185329,-0.232833 1.608661,-0.634998 v 0.264582 c 0,0.973664 -0.444498,1.619245 -1.428745,1.619245 -0.380999,0 -0.93133,-0.169333 -1.111247,-0.603248 h -1.534578 c 0.211666,1.15358 1.344079,1.904994 2.645825,1.904994 1.746244,0 2.825743,-1.132413 2.825743,-2.942157 z m -1.396998,2.741075 c 0,0.846664 -0.624414,1.534578 -1.396995,1.534578 -0.772581,0 -1.396996,-0.666748 -1.396996,-1.534578 0,-0.888997 0.624415,-1.566328 1.396996,-1.566328 0.772581,0 1.396995,0.698497 1.396995,1.566328 z"
       style="font-family:'Chalet NewYorkNineteenSixty';-inkscape-font-specification:'Chalet NewYorkNineteenSixty, Normal'"
       id="path322" /><path
       d="m 106.52431,46.525692 c 0,-1.439328 -0.88899,-2.402409 -2.22249,-2.402409 -0.47625,0 -0.89958,0.15875 -1.24883,0.423332 v -2.709324 h -1.40758 v 7.873975 h 1.40758 v -3.185574 c 0,-0.613831 0.43392,-1.037163 1.05833,-1.037163 0.91016,0 1.016,0.719664 1.016,1.037163 v 3.185574 h 1.39699 z"
       style="font-family:'Chalet NewYorkNineteenSixty';-inkscape-font-specification:'Chalet NewYorkNineteenSixty, Normal'"
       id="path324" /><path
       d="m 109.10664,48.21902 h -1.50283 v 1.492246 h 0.79375 v 0.190499 c 0,0.465665 -0.22225,0.793747 -0.65617,0.888997 v 0.656165 c 0.79375,-0.08467 1.36525,-0.603248 1.36525,-1.555745 z"
       style="font-family:'Chalet NewYorkNineteenSixty';-inkscape-font-specification:'Chalet NewYorkNineteenSixty, Normal'"
       id="path326" /><path
       d="m 120.75882,42.366456 h -2.08491 l -1.53457,5.503315 -1.53458,-5.503315 h -2.07433 v 7.34481 h 1.37583 v -5.3869 l 1.49225,5.3869 h 1.49224 l 1.49225,-5.3869 v 5.3869 h 1.37582 z"
       style="font-family:'Chalet NewYorkNineteenSixty';-inkscape-font-specification:'Chalet NewYorkNineteenSixty, Normal'"
       id="path328" /><path
       d="m 125.78588,49.711266 h 1.28058 c -0.0741,-0.211666 -0.15875,-0.624415 -0.15875,-0.888998 v -2.836324 c 0,-0.433915 -0.16933,-1.862661 -2.38124,-1.862661 -1.42875,0 -2.42358,0.772581 -2.56116,1.809745 h 1.397 c 0.127,-0.465666 0.69849,-0.687915 1.19591,-0.687915 0.62441,0 0.99483,0.232833 0.99483,0.518582 0,0.444498 -0.64558,0.550331 -1.55575,0.634998 -1.20649,0.105833 -2.23307,0.423332 -2.23307,1.650995 0,1.185329 1.05833,1.767411 2.21191,1.767411 0.762,0 1.31233,-0.232833 1.67216,-0.613832 0.0317,0.201083 0.0741,0.370416 0.13758,0.507999 z m -0.17991,-2.11666 c 0,0.698497 -0.67734,0.984247 -1.51342,0.984247 -0.56091,0 -0.92074,-0.211666 -0.92074,-0.518582 0,-0.402166 0.42333,-0.550332 1.11124,-0.624415 0.5715,-0.0635 1.02658,-0.158749 1.32292,-0.349249 z"
       style="font-family:'Chalet NewYorkNineteenSixty';-inkscape-font-specification:'Chalet NewYorkNineteenSixty, Normal'"
       id="path330" /><path
       d="m 132.83435,47.996771 c 0,-1.18533 -0.97366,-1.481662 -2.32833,-1.703911 -0.67733,-0.105833 -1.07949,-0.201083 -1.07949,-0.486832 0,-0.201083 0.26458,-0.433915 0.91016,-0.433915 0.51858,0 0.8255,0.201082 0.91016,0.455082 h 1.44992 c -0.17992,-1.02658 -1.11125,-1.703912 -2.36008,-1.703912 -1.57691,0 -2.32833,0.888998 -2.32833,1.746245 0,1.217079 1.30175,1.481662 2.27541,1.629828 0.9525,0.148166 1.143,0.275166 1.143,0.582081 0,0.317499 -0.42333,0.486832 -0.98425,0.486832 -0.41275,0 -0.97366,-0.169333 -1.16416,-0.634998 h -1.41816 c 0.16933,1.174746 1.19591,1.904994 2.58232,1.904994 1.397,0 2.39183,-0.761997 2.39183,-1.841494 z"
       style="font-family:'Chalet NewYorkNineteenSixty';-inkscape-font-specification:'Chalet NewYorkNineteenSixty, Normal'"
       id="path332" /><path
       d="m 138.40115,47.996771 c 0,-1.18533 -0.97366,-1.481662 -2.32832,-1.703911 -0.67734,-0.105833 -1.0795,-0.201083 -1.0795,-0.486832 0,-0.201083 0.26458,-0.433915 0.91016,-0.433915 0.51858,0 0.8255,0.201082 0.91017,0.455082 h 1.44991 c -0.17992,-1.02658 -1.11125,-1.703912 -2.36008,-1.703912 -1.57691,0 -2.32832,0.888998 -2.32832,1.746245 0,1.217079 1.30174,1.481662 2.27541,1.629828 0.95249,0.148166 1.14299,0.275166 1.14299,0.582081 0,0.317499 -0.42333,0.486832 -0.98424,0.486832 -0.41275,0 -0.97367,-0.169333 -1.16417,-0.634998 H 133.427 c 0.16933,1.174746 1.19591,1.904994 2.58233,1.904994 1.39699,0 2.39182,-0.761997 2.39182,-1.841494 z"
       style="font-family:'Chalet NewYorkNineteenSixty';-inkscape-font-specification:'Chalet NewYorkNineteenSixty, Normal'"
       id="path334" /><path
       d="m 140.71889,48.21902 h -1.50283 v 1.492246 h 1.50283 z"
       style="font-family:'Chalet NewYorkNineteenSixty';-inkscape-font-specification:'Chalet NewYorkNineteenSixty, Normal'"
       id="path336" /><path
       d="m 150.74125,42.366456 h -1.40758 v 4.476735 c 0,1.09008 -0.47625,1.640412 -1.42875,1.640412 -0.95249,0 -1.42874,-0.550332 -1.42874,-1.640412 v -4.476735 h -1.397 v 4.434402 c 0,1.873244 0.97367,3.037407 2.82574,3.037407 1.85208,0 2.83633,-1.164163 2.83633,-3.037407 z"
       style="font-family:'Chalet NewYorkNineteenSixty';-inkscape-font-specification:'Chalet NewYorkNineteenSixty, Normal'"
       id="path338" /><path
       d="m 154.74173,42.175956 c -1.71449,0 -2.82574,0.878414 -2.82574,2.137827 0,1.576911 1.37583,1.979077 2.73049,2.243659 1.35467,0.264583 1.73566,0.550332 1.73566,1.015997 0,0.698498 -0.83608,0.984247 -1.64041,0.984247 -0.74083,0 -1.60866,-0.412749 -1.60866,-1.280579 h -1.39699 c 0,1.767411 1.56632,2.561158 3.00565,2.561158 1.85208,0 3.03741,-0.888997 3.03741,-2.307159 0,-1.502829 -1.10066,-1.936744 -2.84691,-2.285993 -1.12183,-0.232832 -1.61924,-0.412749 -1.61924,-0.920747 0,-0.560915 0.68791,-0.846664 1.42874,-0.846664 0.889,0 1.41817,0.476249 1.41817,1.111247 h 1.39699 c 0,-1.164163 -0.87841,-2.412993 -2.81516,-2.412993 z"
       style="font-family:'Chalet NewYorkNineteenSixty';-inkscape-font-specification:'Chalet NewYorkNineteenSixty, Normal'"
       id="path340" /><path
       d="m 163.16603,48.240187 0.49742,1.471079 h 1.48166 l -2.56116,-7.34481 h -1.76741 l -2.56116,7.34481 h 1.48166 l 0.49742,-1.471079 z m -0.44449,-1.301746 h -2.05316 l 1.02658,-3.01624 z"
       style="font-family:'Chalet NewYorkNineteenSixty';-inkscape-font-specification:'Chalet NewYorkNineteenSixty, Normal'"
       id="path342" /><path
       d="m 173.88689,49.711266 v -7.873975 h -1.397 v 7.873975 z"
       style="font-family:'Chalet NewYorkNineteenSixty';-inkscape-font-specification:'Chalet NewYorkNineteenSixty, Normal'"
       id="path344" /><path
       d="m 184.52307,42.175956 c -1.7145,0 -2.82574,0.878414 -2.82574,2.137827 0,1.576911 1.37582,1.979077 2.73049,2.243659 1.35466,0.264583 1.73566,0.550332 1.73566,1.015997 0,0.698498 -0.83608,0.984247 -1.64041,0.984247 -0.74083,0 -1.60866,-0.412749 -1.60866,-1.280579 h -1.397 c 0,1.767411 1.56633,2.561158 3.00566,2.561158 1.85207,0 3.0374,-0.888997 3.0374,-2.307159 0,-1.502829 -1.10066,-1.936744 -2.8469,-2.285993 -1.12183,-0.232832 -1.61925,-0.412749 -1.61925,-0.920747 0,-0.560915 0.68792,-0.846664 1.42875,-0.846664 0.88899,0 1.41816,0.476249 1.41816,1.111247 h 1.39699 c 0,-1.164163 -0.87841,-2.412993 -2.81515,-2.412993 z"
       style="font-family:'Chalet NewYorkNineteenSixty';-inkscape-font-specification:'Chalet NewYorkNineteenSixty, Normal'"
       id="path346" /><path
       d="m 190.03697,42.366456 h -1.397 v 1.301745 h 1.397 z m 0,1.89441 h -1.397 v 5.4504 h 1.397 z"
       style="font-family:'Chalet NewYorkNineteenSixty';-inkscape-font-specification:'Chalet NewYorkNineteenSixty, Normal'"
       id="path348" /><path
       d="m 196.20702,46.525692 c 0,-1.439328 -0.84666,-2.402409 -2.12724,-2.402409 -0.58208,0 -1.05833,0.254 -1.40758,0.666748 v -0.529165 h -1.33349 v 5.4504 h 1.39699 v -3.185574 c 0,-0.613831 0.43392,-1.079496 1.05833,-1.079496 0.92075,0 1.016,0.761997 1.016,1.079496 v 3.185574 h 1.39699 z"
       style="font-family:'Chalet NewYorkNineteenSixty';-inkscape-font-specification:'Chalet NewYorkNineteenSixty, Normal'"
       id="path350" /><path
       d="m 202.57816,47.869771 h -1.49225 c -0.17991,0.380999 -0.62441,0.698498 -1.14299,0.698498 -0.77258,0 -1.397,-0.709081 -1.397,-1.566328 0,-0.878414 0.62442,-1.598078 1.397,-1.598078 0.508,0 0.94191,0.317499 1.13241,0.687914 h 1.49225 c -0.3175,-1.227663 -1.31233,-1.968494 -2.62466,-1.968494 -1.64041,0 -2.81516,1.291163 -2.81516,2.868075 0,1.576911 1.17475,2.846907 2.81516,2.846907 1.32291,0 2.31774,-0.730248 2.63524,-1.968494 z"
       style="font-family:'Chalet NewYorkNineteenSixty';-inkscape-font-specification:'Chalet NewYorkNineteenSixty, Normal'"
       id="path352" /><path
       d="m 208.70589,47.531106 c 0.20108,-2.158993 -1.13242,-3.407823 -2.74108,-3.407823 -1.53458,0 -2.79399,1.291163 -2.79399,2.868075 0,1.576911 1.25941,2.846907 2.79399,2.846907 1.35466,0 2.31774,-0.751414 2.63524,-1.862661 h -1.49224 c -0.23284,0.433916 -0.68792,0.634998 -1.15358,0.634998 -0.65617,0 -1.18533,-0.412748 -1.36525,-1.079496 z m -4.09574,-1.142997 c 0.20108,-0.634998 0.70908,-1.037163 1.34408,-1.037163 0.66675,0 1.19591,0.402165 1.36524,1.037163 z"
       style="font-family:'Chalet NewYorkNineteenSixty';-inkscape-font-specification:'Chalet NewYorkNineteenSixty, Normal'"
       id="path354" /><path
       d="m 214.20918,48.40952 c 0.0423,-0.444499 0.61383,-0.846664 1.35466,-1.24883 1.25942,-0.687914 2.20133,-1.227662 2.20133,-2.614075 0,-1.068913 -0.762,-2.211909 -2.45533,-2.211909 -1.68274,0 -2.56115,1.259412 -2.56115,2.603491 h 1.40758 c 0,-0.751414 0.43391,-1.312329 1.16416,-1.312329 0.74083,0 1.04774,0.423332 1.04774,0.910164 0,0.433915 -0.13758,0.772581 -1.50282,1.502829 -1.12183,0.603248 -2.21191,1.396995 -2.21191,3.04799 v 0.624415 H 217.744 V 48.40952 Z"
       style="font-family:'Chalet NewYorkNineteenSixty';-inkscape-font-specification:'Chalet NewYorkNineteenSixty, Normal'"
       id="path356" /><path
       d="m 221.36348,42.355872 c -1.32291,0 -2.73049,0.984247 -2.73049,3.746488 0,2.762242 1.40758,3.746488 2.73049,3.746488 1.31233,0 2.71991,-0.984246 2.71991,-3.746488 0,-2.762241 -1.40758,-3.746488 -2.71991,-3.746488 z m 0,6.201814 c -1.20649,0 -1.34408,-1.725078 -1.34408,-2.455326 0,-0.740831 0.13759,-2.465908 1.34408,-2.465908 1.19592,0 1.3335,1.725077 1.3335,2.465908 0,0.730248 -0.13758,2.455326 -1.3335,2.455326 z"
       style="font-family:'Chalet NewYorkNineteenSixty';-inkscape-font-specification:'Chalet NewYorkNineteenSixty, Normal'"
       id="path358" /><path
       d="m 226.35879,48.40952 c 0.0423,-0.444499 0.61384,-0.846664 1.35467,-1.24883 1.25941,-0.687914 2.20132,-1.227662 2.20132,-2.614075 0,-1.068913 -0.76199,-2.211909 -2.45532,-2.211909 -1.68275,0 -2.56116,1.259412 -2.56116,2.603491 h 1.40758 c 0,-0.751414 0.43391,-1.312329 1.16416,-1.312329 0.74083,0 1.04775,0.423332 1.04775,0.910164 0,0.433915 -0.13759,0.772581 -1.50283,1.502829 -1.12183,0.603248 -2.21191,1.396995 -2.21191,3.04799 v 0.624415 h 5.09057 V 48.40952 Z"
       style="font-family:'Chalet NewYorkNineteenSixty';-inkscape-font-specification:'Chalet NewYorkNineteenSixty, Normal'"
       id="path360" /><path
       d="m 232.31718,48.40952 c 0.0423,-0.444499 0.61383,-0.846664 1.35467,-1.24883 1.25941,-0.687914 2.20132,-1.227662 2.20132,-2.614075 0,-1.068913 -0.762,-2.211909 -2.45532,-2.211909 -1.68275,0 -2.56116,1.259412 -2.56116,2.603491 h 1.40758 c 0,-0.751414 0.43391,-1.312329 1.16416,-1.312329 0.74083,0 1.04775,0.423332 1.04775,0.910164 0,0.433915 -0.13759,0.772581 -1.50283,1.502829 -1.12183,0.603248 -2.21191,1.396995 -2.21191,3.04799 v 0.624415 h 5.09057 V 48.40952 Z"
       style="font-family:'Chalet NewYorkNineteenSixty';-inkscape-font-specification:'Chalet NewYorkNineteenSixty, Normal'"
       id="path362" /></g></svg>
